<svg preserveAspectRatio="none" overflow="visible" style="display: block;" width="747.346" height="936.556" viewBox="0 0 747.346 936.556" fill="none" xmlns="http://www.w3.org/2000/svg">
<path id="b-blauth" d="M183.092 0.0177137C179.485 -0.0426092 179.433 0.00957606 175.902 0.849595C172.894 3.19324 171.75 5.49621 170.32 9.09428C162.998 27.5232 156.045 46.9869 149.924 65.8068C124.584 143.698 107.049 228.162 120.76 310.039C126.349 343.417 135.05 364.87 146.967 395.642C106.312 363.801 64.5347 318.053 44.659 270.071C38.315 254.754 35.5077 229.679 30.8227 219.003C25.713 217.166 28.1633 217.262 23.2424 218.111C22.4627 218.705 20.3578 220.437 20.1317 221.365C-6.87561 332.947 -26.159 512.829 96.2521 575.429C122.591 588.901 154.112 599.47 181.474 611.557C228.325 631.732 273.775 655.013 317.515 681.254C227.893 739.913 109.177 633.721 90.4619 638.479C89.0867 640.501 87.5307 642.501 88.1831 645.327C90.4789 655.258 100.028 671.601 104.813 680.795C141.235 750.782 187.194 824.065 245.391 878.1C282.001 912.083 318.947 937.62 370.217 935.699C383.149 934.604 395.821 931.431 407.752 926.325C454.769 906.396 484.903 864.125 503.119 817.899C523.878 765.227 526.924 716.956 504.439 664.72C567.467 717.616 651.877 804.18 648.292 893.203C647.75 906.653 643.323 918.518 639.904 931.253C639.268 933.632 640.571 934.503 641.87 936.022C653.377 939.921 664.816 921.456 671.664 913.1C750.989 816.19 781.447 684.314 696.268 579.272C653.934 527.07 603.969 500.59 549.837 462.849C426.548 376.175 297.7 279.926 216.219 150.683C194.593 114.066 177.051 71.2707 181.757 27.9356C183.154 15.0688 189.947 11.105 183.092 0.0177137ZM114.182 665.3C166.007 693.463 232.994 726.965 292.797 709.058C306.5 704.925 319.334 698.323 330.669 689.587C367.118 713.538 402.157 738.673 430.15 772.644C451.45 798.483 474.524 838.297 455.421 871.598C453.689 874.581 448.998 879.563 446.569 882.3C390.917 936.58 331.077 930.682 273.659 883.171C211.933 832.085 168.164 765.863 129.563 696.434C126.275 690.525 114.988 670.942 114.182 665.3ZM166.884 65.0308C203.438 231.654 400.962 373.661 531.89 468.474C581.132 504.133 636.487 532.137 676.758 578.881C752.909 664.664 746.719 773.459 686.886 866.85C683.574 872.112 680.105 877.284 676.485 882.345L662.852 901.191C666.722 830.075 629.623 772.052 583.797 720.966C531.485 662.653 458.958 603.2 394.126 559.555C357.928 535.378 321.186 512.026 283.93 489.517C263.08 476.845 229.917 458.011 211.874 444.148C198.573 433.827 186.642 421.853 176.369 408.515C110.284 322.466 127.288 187.86 157.298 90.7148C159.121 84.8127 163.788 69.4109 166.884 65.0308ZM26.3082 263.764C71.0765 379.066 208.975 468.209 311.732 529.081C427.882 597.882 557.534 658.174 485.958 820.792C484.822 823.395 483.604 825.975 482.307 828.511L477.34 838.866C475.093 827.315 472.699 814.927 467.688 804.214C443.64 752.771 395.591 715.559 349.89 684.392C275.731 633.798 194.141 600.24 111.732 566.693C9.5273 525.08 7.29522 386.839 20.5509 294.236C21.6881 285.815 23.7969 271.505 26.3082 263.764Z" fill="#8B0727"/>
</svg>
